<svg xmlns="http://www.w3.org/2000/svg" viewBox="0 0 128 128">
  <defs>
    <linearGradient id="g1" x1="0%" y1="0%" x2="100%" y2="100%">
      <stop offset="0%" style="stop-color:#a855f7"/>
      <stop offset="100%" style="stop-color:#ec4899"/>
    </linearGradient>
  </defs>
  <circle cx="64" cy="64" r="60" fill="url(#g1)" opacity="0.15"/>
  <circle cx="64" cy="64" r="12" fill="url(#g1)"/>
  <circle cx="64" cy="20" r="7" fill="url(#g1)"/>
  <circle cx="64" cy="108" r="7" fill="url(#g1)"/>
  <circle cx="20" cy="64" r="7" fill="url(#g1)"/>
  <circle cx="108" cy="64" r="7" fill="url(#g1)"/>
  <circle cx="33" cy="33" r="5" fill="url(#g1)"/>
  <circle cx="95" cy="95" r="5" fill="url(#g1)"/>
  <circle cx="95" cy="33" r="5" fill="url(#g1)"/>
  <circle cx="33" cy="95" r="5" fill="url(#g1)"/>
  <line x1="64" y1="52" x2="64" y2="27" stroke="url(#g1)" stroke-width="2.5"/>
  <line x1="64" y1="76" x2="64" y2="101" stroke="url(#g1)" stroke-width="2.5"/>
  <line x1="52" y1="64" x2="27" y2="64" stroke="url(#g1)" stroke-width="2.5"/>
  <line x1="76" y1="64" x2="101" y2="64" stroke="url(#g1)" stroke-width="2.5"/>
  <line x1="55.5" y1="55.5" x2="38.5" y2="38.5" stroke="url(#g1)" stroke-width="2.5"/>
  <line x1="72.5" y1="72.5" x2="89.5" y2="89.5" stroke="url(#g1)" stroke-width="2.5"/>
  <line x1="72.5" y1="55.5" x2="89.5" y2="38.5" stroke="url(#g1)" stroke-width="2.5"/>
  <line x1="55.5" y1="72.5" x2="38.5" y2="89.5" stroke="url(#g1)" stroke-width="2.5"/>
</svg>
